<svg width="120" height="120" viewBox="0 0 120 120" fill="none" xmlns="http://www.w3.org/2000/svg">
<path d="M93.5851 91.7925C91.271 91.8009 88.9781 91.3507 86.839 90.4677C84.6999 89.5848 82.7569 88.2868 81.1224 86.6486L63.1204 68.6351C62.4836 68.0262 61.6366 67.6864 60.7556 67.6864C59.8746 67.6864 59.0275 68.0262 58.3908 68.6351L40.3279 86.698C38.6944 88.3386 36.7519 89.6392 34.6128 90.5248C32.4737 91.4103 30.1803 91.8632 27.8652 91.8572H24.3408L47.1523 114.669C50.5736 118.083 55.2094 120 60.0427 120C64.876 120 69.5118 118.083 72.9331 114.669L95.7902 91.8078L93.5851 91.7925Z" fill="white"/>
<path d="M27.869 28.1333C30.1842 28.1271 32.4776 28.5798 34.6168 29.4654C36.7559 30.3509 38.6983 31.6517 40.3317 33.2925L58.3946 51.3592C59.0224 51.9851 59.8728 52.3366 60.7594 52.3366C61.6459 52.3366 62.4963 51.9851 63.1242 51.3592L81.1224 33.3609C82.7545 31.7181 84.6965 30.4157 86.8359 29.5294C88.9753 28.6431 91.2694 28.1905 93.5851 28.1979H95.7522L72.8951 5.34078C71.2025 3.64759 69.1929 2.30443 66.9812 1.38805C64.7694 0.471663 62.3988 0 60.0047 0C57.6106 0 55.24 0.471663 53.0282 1.38805C50.8164 2.30443 48.8069 3.64759 47.1143 5.34078L24.3408 28.1333H27.869Z" fill="white"/>
<path d="M114.659 47.1087L100.847 33.2963C100.535 33.4236 100.202 33.4907 99.866 33.494H93.5852C90.3169 33.5022 87.1839 34.8002 84.8674 37.1058L66.8691 55.0927C65.2482 56.7106 63.0516 57.6194 60.7614 57.6194C58.4711 57.6194 56.2745 56.7106 54.6536 55.0927L36.5869 37.0374C34.271 34.7304 31.138 33.431 27.8691 33.4218H20.1588C19.8411 33.4146 19.527 33.3516 19.2311 33.2355L5.33134 47.1087C1.91735 50.5299 0 55.1658 0 59.9991C0 64.8323 1.91735 69.4682 5.33134 72.8895L19.2007 86.7588C19.496 86.6406 19.8104 86.5775 20.1284 86.5725H27.8691C31.1379 86.5629 34.2708 85.2636 36.5869 82.9569L54.6498 64.894C57.9156 61.632 63.6071 61.632 66.8691 64.894L84.8674 82.8885C87.1839 85.1941 90.3169 86.4921 93.5852 86.5003H99.866C100.203 86.5027 100.536 86.5698 100.847 86.698L114.659 72.8857C116.352 71.1931 117.696 69.1835 118.612 66.9718C119.528 64.76 120 62.3893 120 59.9953C120 57.6012 119.528 55.2305 118.612 53.0188C117.696 50.807 116.352 48.7974 114.659 47.1049" fill="white"/>
</svg>
