<svg width="16" height="16" viewBox="0 0 16 16" fill="none" xmlns="http://www.w3.org/2000/svg">
<g clip-path="url(#clip0_278_9342)">
<path d="M0.706055 11.9054C0.706055 9.47414 0.706055 7.04288 0.706055 4.61127C0.714755 4.56451 0.723092 4.51738 0.732879 4.47062C0.787979 4.20708 0.818428 3.93521 0.902889 3.68147C1.47418 1.95998 2.98252 0.857631 4.78884 0.850744C7.00731 0.842044 9.2265 0.847481 11.4453 0.849294C12.1478 0.849656 12.8181 1.00372 13.4249 1.35896C14.8031 2.16588 15.5151 3.37806 15.5252 4.97557C15.539 7.16504 15.5314 9.35451 15.5256 11.544C15.5249 11.8173 15.5093 12.0972 15.4502 12.3629C15.0804 14.0231 14.0698 15.0874 12.431 15.5463C12.2145 15.6068 11.9876 15.6289 11.7654 15.6685C9.33344 15.6685 6.90182 15.6685 4.46984 15.6685C4.31868 15.6442 4.16534 15.6282 4.01636 15.5945C2.35396 15.2186 1.28786 14.2109 0.828215 12.5702C0.767679 12.3542 0.745929 12.1272 0.706055 11.9054ZM8.11509 12.3201C10.3491 12.3244 12.1616 10.5174 12.1801 8.26775C12.1982 6.03986 10.3644 4.20092 8.1198 4.19657C5.88575 4.19222 4.07327 5.99926 4.05478 8.2489C4.0363 10.4768 5.87052 12.3157 8.11509 12.3201ZM12.427 2.71904C11.7535 2.71832 11.1912 3.27765 11.1901 3.94935C11.1894 4.61815 11.7531 5.18328 12.4244 5.18582C13.094 5.18872 13.6555 4.62685 13.6576 3.95189C13.6595 3.2762 13.1045 2.72013 12.427 2.71904Z" fill="white"/>
<path d="M8.12139 5.07191C9.88312 5.07517 11.3139 6.5121 11.3045 8.26947C11.295 10.0279 9.86825 11.4478 8.11378 11.4449C6.35205 11.4417 4.92129 10.0044 4.93071 8.24736C4.93977 6.4889 6.36692 5.06864 8.12139 5.07191Z" fill="white"/>
<path d="M12.7818 3.94844C12.7825 4.14346 12.6179 4.30949 12.4247 4.3084C12.2337 4.30731 12.0655 4.13549 12.0684 3.94518C12.0713 3.75777 12.2326 3.59755 12.4207 3.59501C12.6179 3.59211 12.7811 3.75161 12.7818 3.94844Z" fill="white"/>
</g>
<defs>
<clipPath id="clip0_278_9342">
<rect width="14.8478" height="14.8478" fill="white" transform="translate(0.706055 0.819946)"/>
</clipPath>
</defs>
</svg>
