<svg width="120" height="120" viewBox="0 0 120 120" fill="none" xmlns="http://www.w3.org/2000/svg">
<path d="M40.035 11.925C32.892 13.8936 25.7974 16.0342 18.7575 18.345C18.1147 18.5532 17.5433 18.9378 17.1084 19.455C16.6734 19.9721 16.3925 20.601 16.2975 21.27C12.1425 52.4475 21.7425 75.195 33.195 90.18C38.0439 96.5879 43.8256 102.233 50.3475 106.927C52.9425 108.757 55.2375 110.077 57.045 110.925C57.945 111.353 58.68 111.637 59.2425 111.81C59.4886 111.896 59.7422 111.959 60 111.997C60.2548 111.956 60.5057 111.893 60.75 111.81C61.32 111.637 62.055 111.353 62.955 110.925C64.755 110.077 67.0575 108.75 69.6525 106.927C76.1744 102.233 81.9561 96.5879 86.8051 90.18C98.2576 75.2025 107.858 52.4475 103.703 21.27C103.608 20.6007 103.328 19.9714 102.893 19.4541C102.458 18.9368 101.886 18.5525 101.243 18.345C96.36 16.7475 88.1175 14.145 79.965 11.9325C71.64 9.675 63.9825 8.0025 60 8.0025C56.025 8.0025 48.36 9.675 40.035 11.9325V11.925ZM38.04 4.2C46.1775 1.9875 54.825 0 60 0C65.175 0 73.8225 1.9875 81.9601 4.2C90.285 6.45 98.6775 9.1125 103.613 10.725C105.676 11.4064 107.505 12.656 108.89 14.3303C110.275 16.0045 111.16 18.0355 111.443 20.19C115.913 53.7675 105.54 78.6525 92.955 95.115C87.6184 102.157 81.255 108.359 74.0775 113.513C71.5957 115.296 68.9662 116.864 66.2175 118.2C64.1175 119.19 61.86 120 60 120C58.14 120 55.89 119.19 53.7825 118.2C51.0339 116.864 48.4043 115.296 45.9225 113.513C38.7453 108.359 32.3819 102.157 27.045 95.115C14.46 78.6525 4.08754 53.7675 8.55754 20.19C8.84019 18.0355 9.72486 16.0045 11.1099 14.3303C12.495 12.656 14.3242 11.4064 16.3875 10.725C23.5515 8.37607 30.7711 6.20044 38.04 4.2Z" fill="white"/>
<path d="M81.4051 38.595C81.7543 38.9433 82.0314 39.3571 82.2204 39.8127C82.4095 40.2683 82.5068 40.7567 82.5068 41.25C82.5068 41.7432 82.4095 42.2317 82.2204 42.6872C82.0314 43.1428 81.7543 43.5566 81.4051 43.905L58.9051 66.405C58.5568 66.7542 58.1429 67.0313 57.6874 67.2203C57.2318 67.4094 56.7434 67.5067 56.2501 67.5067C55.7568 67.5067 55.2684 67.4094 54.8128 67.2203C54.3573 67.0313 53.9434 66.7542 53.5951 66.405L42.3451 55.155C41.9964 54.8063 41.7199 54.3924 41.5312 53.9369C41.3425 53.4813 41.2454 52.9931 41.2454 52.5C41.2454 52.0069 41.3425 51.5187 41.5312 51.0631C41.7199 50.6076 41.9964 50.1936 42.3451 49.845C42.6938 49.4963 43.1077 49.2198 43.5632 49.0311C44.0188 48.8424 44.507 48.7452 45.0001 48.7452C45.4932 48.7452 45.9814 48.8424 46.437 49.0311C46.8925 49.2198 47.3064 49.4963 47.6551 49.845L56.2501 58.4475L76.0951 38.595C76.4434 38.2458 76.8573 37.9687 77.3129 37.7796C77.7684 37.5906 78.2568 37.4933 78.7501 37.4933C79.2434 37.4933 79.7318 37.5906 80.1873 37.7796C80.6429 37.9687 81.0568 38.2458 81.4051 38.595Z" fill="white"/>
</svg>
