<svg width="18" height="18" viewBox="0 0 18 18" fill="none" xmlns="http://www.w3.org/2000/svg">
<path d="M6.57354 14.5643C7.62557 14.5995 8.67398 14.4235 9.65681 14.0466C10.6396 13.6697 11.537 13.0996 12.2957 12.37C13.0545 11.6405 13.6593 10.7662 14.0744 9.79889C14.4895 8.83159 14.7065 7.79088 14.7126 6.73829C15.1947 6.14167 15.5527 5.4547 15.7656 4.71775C15.7815 4.65952 15.7802 4.59795 15.7619 4.54043C15.7436 4.48292 15.709 4.43192 15.6624 4.39358C15.6158 4.35524 15.5591 4.33119 15.4992 4.32433C15.4392 4.31747 15.3785 4.32809 15.3245 4.3549C15.0722 4.47632 14.7883 4.51554 14.5126 4.46703C14.2369 4.41853 13.9834 4.28476 13.7877 4.08455C13.538 3.81105 13.2358 3.59047 12.8993 3.43586C12.5627 3.28126 12.1985 3.19579 11.8283 3.18451C11.4581 3.17323 11.0894 3.23638 10.7441 3.3702C10.3987 3.50403 10.0837 3.70582 9.81778 3.9636C9.45366 4.31624 9.18695 4.75708 9.04358 5.24328C8.90022 5.72948 8.88507 6.2445 8.99961 6.73829C6.61623 6.88058 4.97988 5.74936 3.67079 4.19838C3.63147 4.15385 3.58002 4.12173 3.52274 4.10594C3.46546 4.09016 3.40483 4.0914 3.34824 4.10951C3.29165 4.12762 3.24156 4.16181 3.20408 4.20792C3.16661 4.25402 3.14337 4.31004 3.1372 4.36913C2.88781 5.75251 3.06771 7.17907 3.65274 8.45721C4.23776 9.73536 5.19989 10.8039 6.4099 11.5193C5.59858 12.4497 4.45924 13.0309 3.22969 13.1414C3.16382 13.1523 3.10301 13.1836 3.05578 13.2308C3.00854 13.278 2.97725 13.3387 2.96627 13.4046C2.95529 13.4705 2.96518 13.5381 2.99456 13.5981C3.02393 13.658 3.07132 13.7073 3.13009 13.739C4.19978 14.2736 5.37774 14.5559 6.57354 14.5643Z" fill="white"/>
</svg>
