<svg width="16" height="15" viewBox="0 0 16 15" fill="none" xmlns="http://www.w3.org/2000/svg">
<g clip-path="url(#clip0_278_9339)">
<path d="M7.19529 5.76819C7.19529 6.5562 7.19529 7.31019 7.19529 8.10014C6.92192 8.10014 6.6559 8.09086 6.39065 8.10169C5.38069 8.14384 4.56251 8.82475 4.33245 9.80687C4.0498 11.0136 4.87687 12.2386 6.10877 12.4389C7.36349 12.6426 8.52773 11.7568 8.64334 10.5079C8.65687 10.3606 8.66267 10.2121 8.66267 10.064C8.66383 6.88641 8.66344 3.70922 8.66344 0.531634C8.66344 0.440382 8.66344 0.34913 8.66344 0.242798C9.44063 0.242798 10.2054 0.242798 10.9691 0.242798C11.3148 2.74295 12.5115 3.65779 14.7128 3.93193C14.7128 4.69559 14.7128 5.46079 14.7128 6.24494C14.0396 6.23605 13.3919 6.12662 12.7798 5.89115C12.1732 5.6576 11.5928 5.35601 10.9931 5.0807C10.9931 5.12169 10.9931 5.20289 10.9931 5.28409C10.9931 6.92237 10.9969 8.56027 10.9919 10.1986C10.9861 12.1725 9.85127 13.8336 8.05136 14.5156C5.29137 15.5615 2.24873 13.6634 1.97459 10.7244C1.72867 8.08738 3.72616 5.8374 6.37711 5.76857C6.6443 5.762 6.91109 5.76819 7.19529 5.76819Z" fill="white"/>
</g>
<defs>
<clipPath id="clip0_278_9339">
<rect width="14.8478" height="14.8478" fill="white" transform="translate(0.895508 0.0776367)"/>
</clipPath>
</defs>
</svg>
