<svg width="13" height="13" viewBox="0 0 13 13" fill="none" xmlns="http://www.w3.org/2000/svg">
<path d="M5.63951 10.1893C5.51751 10.3618 5.402 10.4468 5.29157 10.4468C5.21795 10.4468 5.17605 10.4037 5.16273 10.3182C5.15747 10.3005 5.15747 10.2333 5.15747 10.1043V7.86768H4.60742V10.2698C4.60742 10.4845 4.62565 10.6293 4.65598 10.7213C4.71084 10.8752 4.83319 10.9473 5.01058 10.9473C5.21286 10.9473 5.42075 10.8251 5.63933 10.5741V10.9056H6.19026V7.86785H5.63951V10.1893Z" fill="white"/>
<path d="M2.60742 7.40275H3.25493V10.9058H3.86703V7.40275H4.52646V6.82886H2.60742V7.40275Z" fill="white"/>
<path d="M6.35638 4.74676C6.5357 4.74676 6.62159 4.60478 6.62159 4.32064V3.02913C6.62159 2.74534 6.5357 2.60388 6.35638 2.60388C6.17689 2.60388 6.09082 2.74534 6.09082 3.02913V4.32064C6.091 4.6046 6.17689 4.74676 6.35638 4.74676Z" fill="white"/>
<path d="M7.78504 7.83097C7.58276 7.83097 7.39416 7.94175 7.21659 8.16051V6.82886H6.66602V10.9058H7.21659V10.611C7.40029 10.8387 7.58942 10.9476 7.78504 10.9476C8.00433 10.9476 8.15157 10.8322 8.22519 10.6063C8.26182 10.4774 8.28058 10.2752 8.28058 9.99418V8.78453C8.28058 8.49706 8.26182 8.29618 8.22519 8.17401C8.15139 7.94631 8.00433 7.83097 7.78504 7.83097ZM7.73018 10.0373C7.73018 10.3116 7.64937 10.4469 7.49074 10.4469C7.40029 10.4469 7.30844 10.4038 7.21642 10.3118V8.46007C7.30844 8.36945 7.40012 8.32633 7.49074 8.32633C7.64955 8.32633 7.73018 8.46691 7.73018 8.74088V10.0373Z" fill="white"/>
<path d="M9.53826 7.83093C9.25746 7.83093 9.038 7.93453 8.87919 8.14259C8.7621 8.29597 8.70898 8.53331 8.70898 8.85776V9.9221C8.70898 10.2446 8.76893 10.4846 8.88585 10.6362C9.04483 10.8436 9.26394 10.9474 9.55211 10.9474C9.83958 10.9474 10.0652 10.8385 10.2177 10.6183C10.2843 10.5204 10.3278 10.4101 10.3462 10.2883C10.3511 10.2331 10.3579 10.1107 10.3579 9.93367V9.85304H9.79611C9.79611 10.0739 9.78927 10.1961 9.78419 10.226C9.75282 10.3731 9.67359 10.4467 9.53826 10.4467C9.34931 10.4467 9.25746 10.3065 9.25746 10.0253V9.48686H10.3581V8.85759C10.3581 8.53295 10.3029 8.29579 10.1877 8.14242C10.0336 7.93435 9.81452 7.83093 9.53826 7.83093ZM9.80768 9.02884H9.25746V8.74786C9.25746 8.46705 9.34931 8.32647 9.53336 8.32647C9.71548 8.32647 9.80768 8.46705 9.80768 8.74786V9.02884Z" fill="white"/>
<path d="M11.5655 0.30481H1.39888C0.724027 0.30481 0.171875 0.856962 0.171875 1.53181V11.6984C0.171875 12.3733 0.724027 12.9254 1.39888 12.9254H11.5655C12.2403 12.9254 12.7925 12.3733 12.7925 11.6984V1.53181C12.7925 0.856962 12.2403 0.30481 11.5655 0.30481ZM7.63557 2.14006H8.19V4.39985C8.19 4.53062 8.19 4.59845 8.19684 4.61633C8.20911 4.70257 8.25258 4.74657 8.32725 4.74657C8.43839 4.74657 8.5553 4.66033 8.67853 4.48609V2.14006H9.23489V5.20932H8.67853V4.87453C8.45714 5.12852 8.24592 5.25192 8.04311 5.25192C7.86397 5.25192 7.74039 5.17918 7.68483 5.02352C7.65415 4.93079 7.63557 4.78373 7.63557 4.56708V2.14006ZM5.53441 3.14059C5.53441 2.81263 5.59033 2.57267 5.70865 2.41754C5.86255 2.20789 6.0792 2.1029 6.35616 2.1029C6.63486 2.1029 6.85117 2.20789 7.00524 2.41754C7.12163 2.57267 7.1779 2.81263 7.1779 3.14059V4.21598C7.1779 4.54201 7.12181 4.7839 7.00524 4.93798C6.85117 5.1471 6.63504 5.25209 6.35616 5.25209C6.07903 5.25209 5.86238 5.1471 5.70865 4.93798C5.59033 4.7839 5.53441 4.54201 5.53441 4.21598V3.14059ZM4.04693 1.09044L4.48497 2.70781L4.90549 1.09044H5.52916L4.78734 3.5413V5.20932H4.17033V3.5413C4.11459 3.24542 3.99119 2.81246 3.79347 2.23804C3.66341 1.85592 3.52791 1.47204 3.39802 1.09044H4.04693ZM10.8771 11.0881C10.766 11.5724 10.3695 11.9296 9.89274 11.9827C8.76319 12.109 7.62015 12.1097 6.48219 12.109C5.34405 12.1097 4.20101 12.109 3.07164 11.9827C2.59468 11.9295 2.19889 11.5722 2.08758 11.0881C1.92895 10.3982 1.92895 9.64512 1.92895 8.93521C1.92895 8.2246 1.9307 7.4721 2.08951 6.782C2.20064 6.29785 2.59661 5.9408 3.07357 5.88751C4.20294 5.76095 5.34598 5.7606 6.48412 5.76095C7.62208 5.7606 8.76512 5.76095 9.89467 5.88751C10.3713 5.9408 10.7676 6.29785 10.8789 6.782C11.0375 7.47227 11.0367 8.2246 11.0367 8.93521C11.0368 9.64512 11.036 10.3982 10.8771 11.0881Z" fill="white"/>
</svg>
