<svg width="13" height="7" viewBox="0 0 13 7" fill="none" xmlns="http://www.w3.org/2000/svg">
<path d="M12.0011 0H0V7H12.0011V0Z" fill="white"/>
<path d="M8.03514 2.52822L12.0013 0.308126V0H11.7287L7.20557 2.52822H8.03514Z" fill="#BD0034"/>
<path d="M7.84937 4.60999L12.0012 6.93278V6.46664L8.67894 4.60999H7.84937Z" fill="#BD0034"/>
<path d="M0 0.533156L3.55135 2.52808H4.38093L0 0.0670166V0.533156Z" fill="#BD0034"/>
<path d="M4.19526 4.60999L0 6.96044V6.99994H0.758466L5.02483 4.60999H4.19526Z" fill="#BD0034"/>
<path d="M11.1797 0H6.98047V2.35045L11.1797 0Z" fill="#1A237B"/>
<path d="M5.12364 0H0.936279L5.12364 2.35045V0Z" fill="#1A237B"/>
<path d="M12.0013 2.52828V0.924438L9.15308 2.52828H12.0013Z" fill="#1A237B"/>
<path d="M12.0013 6.19802V4.60999H9.15308L12.0013 6.19802Z" fill="#1A237B"/>
<path d="M1.17334 7.00003H5.12368V4.78784L1.17334 7.00003Z" fill="#1A237B"/>
<path d="M6.98047 7.00003H10.9387L6.98047 4.78784V7.00003Z" fill="#1A237B"/>
<path d="M0 4.60999V6.26913L2.9509 4.60999H0Z" fill="#1A237B"/>
<path d="M0 2.52808H2.9509L0 0.86499V2.52808Z" fill="#1A237B"/>
<path d="M5.49492 0V2.94695H0V4.19526H5.49492V7H6.60892V4.19526H12.0011V2.94695H6.60892V0H5.49492Z" fill="#BD0034"/>
</svg>
