<svg width="18" height="18" viewBox="0 0 18 18" fill="none" xmlns="http://www.w3.org/2000/svg">
<path d="M12.1961 2.82515C12.1961 2.7308 12.1587 2.64032 12.092 2.57361C12.0252 2.5069 11.9348 2.46942 11.8404 2.46942H10.0618C9.16613 2.4248 8.28925 2.73649 7.6227 3.33638C6.95615 3.93628 6.55414 4.7756 6.50449 5.67097V7.59191H4.72585C4.6315 7.59191 4.54102 7.62938 4.47431 7.6961C4.4076 7.76281 4.37012 7.85329 4.37012 7.94763V9.79742C4.37012 9.89177 4.4076 9.98225 4.47431 10.049C4.54102 10.1157 4.6315 10.1532 4.72585 10.1532H6.50449V14.9199C6.50449 15.0143 6.54197 15.1047 6.60868 15.1714C6.67539 15.2382 6.76587 15.2756 6.86022 15.2756H8.99459C9.08893 15.2756 9.17941 15.2382 9.24612 15.1714C9.31284 15.1047 9.35031 15.0143 9.35031 14.9199V10.1532H11.2143C11.2934 10.1543 11.3707 10.129 11.4338 10.0813C11.4969 10.0337 11.5424 9.96631 11.5629 9.88991L12.0752 8.04012C12.0893 7.98756 12.0912 7.93245 12.0808 7.87904C12.0703 7.82563 12.0476 7.77534 12.0147 7.73204C11.9817 7.68874 11.9392 7.65359 11.8905 7.6293C11.8418 7.605 11.7881 7.59221 11.7337 7.59191H9.35031V5.67097C9.36801 5.49487 9.45071 5.33169 9.58227 5.21329C9.71382 5.09489 9.88478 5.02977 10.0618 5.03066H11.8404C11.9348 5.03066 12.0252 4.99318 12.092 4.92647C12.1587 4.85976 12.1961 4.76928 12.1961 4.67493V2.82515Z" fill="white"/>
</svg>
