<svg width="16" height="16" viewBox="0 0 16 16" fill="none" xmlns="http://www.w3.org/2000/svg">
<g clip-path="url(#clip0_278_9336)">
<path d="M0.693359 6.98388C0.800658 6.55396 1.10225 6.35133 1.50716 6.21865C5.68963 4.84806 9.86883 3.46732 14.0491 2.08947C14.6422 1.89409 15.1801 2.17937 15.2765 2.75429C15.2994 2.88986 15.2827 3.0403 15.2508 3.17587C14.4116 6.76022 13.5677 10.3438 12.7257 13.9275C12.5524 14.6651 11.8234 14.9203 11.234 14.4419C10.3676 13.7379 9.50416 13.0299 8.64251 12.3198C8.56312 12.2546 8.51455 12.2455 8.42719 12.3115C7.67356 12.882 6.91667 13.4479 6.15688 14.0105C6.06372 14.0794 5.95425 14.1432 5.84333 14.1671C5.6251 14.2135 5.43661 14.0783 5.37462 13.83C5.27928 13.4483 5.20026 13.0622 5.11725 12.6772C4.88525 11.6013 4.65362 10.5251 4.42561 9.44812C4.40567 9.35315 4.35746 9.30675 4.27191 9.26941C3.31456 8.85363 2.36265 8.42589 1.40095 8.02025C1.04425 7.86982 0.784708 7.65595 0.693359 7.26916C0.693359 7.17419 0.693359 7.07885 0.693359 6.98388ZM14.4464 2.86231C10.1284 4.28547 5.84296 5.69847 1.55718 7.11148C1.61011 7.16948 1.65651 7.19232 1.704 7.21298C2.66859 7.63528 3.63428 8.05578 4.59743 8.48207C4.70364 8.5292 4.78375 8.52702 4.88634 8.47011C7.0131 7.28475 9.14203 6.10266 11.271 4.92092C11.3329 4.88648 11.3967 4.85314 11.4634 4.82994C11.64 4.7694 11.8256 4.8274 11.9361 4.97022C12.0456 5.11232 12.0536 5.3077 11.9481 5.46249C11.9028 5.52846 11.8473 5.58827 11.7915 5.64664C10.3731 7.13069 8.95426 8.61402 7.53545 10.0977C7.49956 10.135 7.46549 10.1735 7.42453 10.2177C8.90315 11.4277 10.3745 12.6316 11.8626 13.8492C12.7253 10.1793 13.5811 6.54091 14.4464 2.86231ZM9.25078 7.06109C9.24353 7.05275 9.23592 7.04405 9.22867 7.03572C7.90411 7.77158 6.57919 8.50708 5.255 9.24259C5.45038 10.1474 5.64214 11.0369 5.83426 11.9261C5.87088 11.8946 5.88284 11.8649 5.89154 11.8341C6.04197 11.3099 6.18516 10.7836 6.34683 10.263C6.38997 10.1238 6.46754 9.98135 6.56723 9.87587C7.40822 8.98449 8.25827 8.10145 9.10542 7.21551C9.15435 7.1644 9.2022 7.11257 9.25078 7.06109ZM7.02433 10.9989C6.86701 11.5502 6.71549 12.0798 6.55345 12.6468C7.00512 12.3086 7.4238 11.995 7.85082 11.6749C7.57279 11.4476 7.30889 11.232 7.02433 10.9989Z" fill="white"/>
</g>
<defs>
<clipPath id="clip0_278_9336">
<rect width="14.8478" height="14.8478" fill="white" transform="translate(0.548828 0.819946)"/>
</clipPath>
</defs>
</svg>
